<svg width="44" height="37" viewBox="0 0 44 37" fill="none" xmlns="http://www.w3.org/2000/svg">
<path d="M43.4004 2.77316V26.4144C43.4004 27.9396 42.1525 29.1875 40.6273 29.1875H15.4608C15.4608 25.2358 12.757 21.908 9.08253 21.0067L18.9273 9.56741L18.9966 9.63674C19.3432 10.0527 20.9378 11.9246 26.4148 18.3029C26.4148 18.3029 26.4148 18.3029 26.4148 18.3722C26.0682 18.7882 24.6816 20.3827 20.0365 25.7904H21.8391C21.8391 25.7904 32.2384 13.6578 32.3078 13.5192L39.726 22.1853V3.3278H7.97327V20.7987C7.69595 20.7987 7.34931 20.7294 7.07199 20.7294C6.10138 20.7294 5.20011 20.868 4.29883 21.2147V2.77316C4.29883 1.24792 5.54675 0 7.07199 0H40.6273C42.1525 0 43.4004 1.24792 43.4004 2.77316Z" fill="#9C0B35"/>
<path d="M27.3151 13.5873C28.9616 13.5873 30.2963 12.2526 30.2963 10.6062C30.2963 8.95971 28.9616 7.625 27.3151 7.625C25.6687 7.625 24.334 8.95971 24.334 10.6062C24.334 12.2526 25.6687 13.5873 27.3151 13.5873Z" fill="#9C0B35"/>
<path d="M7.07156 22.1172C6.10096 22.1172 5.13035 22.3252 4.2984 22.6718C1.80256 23.7118 0 26.2076 0 29.1194C0 33.0019 3.11981 36.1217 7.07156 36.1217C10.954 36.1217 14.0738 33.0019 14.0738 29.1194C14.0738 25.3063 10.954 22.1172 7.07156 22.1172ZM10.746 30.3673H8.25016V32.8632C8.25016 33.5565 7.69553 34.1111 7.00224 34.1111C6.30895 34.1111 5.75431 33.5565 5.75431 32.8632V30.3673H3.3278C2.6345 30.3673 2.07987 29.8127 2.07987 29.1194C2.07987 28.4261 2.6345 27.8715 3.3278 27.8715H5.82364V25.3757C5.82364 24.6824 6.37827 24.1277 7.07156 24.1277C7.76486 24.1277 8.31949 24.6824 8.31949 25.3757V27.8715H10.8153C11.5086 27.8715 12.0633 28.4261 12.0633 29.1194C11.9939 29.8127 11.4393 30.3673 10.746 30.3673Z" fill="#9C0B35"/>
</svg>
