<svg width="45" height="10" viewBox="0 0 45 10" fill="none" xmlns="http://www.w3.org/2000/svg">
<g clip-path="url(#clip0_733_10643)">
<path d="M42.3004 9.19375C41.817 9.19375 41.3448 9.13054 40.8837 9.00411C40.4226 8.87768 40.0545 8.71779 39.7793 8.52443L40.3148 7.46468C40.5825 7.64316 40.9023 7.78818 41.2741 7.89973C41.6534 8.00385 42.0252 8.05591 42.3896 8.05591C43.2226 8.05591 43.639 7.83652 43.639 7.39775C43.639 7.18951 43.5312 7.04449 43.3155 6.96269C43.1073 6.88088 42.7689 6.8028 42.3004 6.72843C41.8096 6.65406 41.408 6.56853 41.0956 6.47185C40.7907 6.37518 40.523 6.20785 40.2924 5.96987C40.0693 5.72445 39.9578 5.38607 39.9578 4.95473C39.9578 4.38953 40.192 3.9396 40.6606 3.60494C41.1365 3.26284 41.7761 3.0918 42.5793 3.0918C42.9883 3.0918 43.3973 3.14014 43.8064 3.23682C44.2154 3.32606 44.5501 3.44877 44.8103 3.60494L44.2749 4.6647C43.7692 4.36722 43.2003 4.21848 42.5681 4.21848C42.1591 4.21848 41.8467 4.2817 41.6311 4.40812C41.4228 4.52711 41.3187 4.68701 41.3187 4.8878C41.3187 5.11091 41.4303 5.2708 41.6534 5.36748C41.8839 5.45672 42.2372 5.54225 42.7131 5.62405C43.1891 5.69842 43.5795 5.78394 43.8844 5.88062C44.1894 5.9773 44.4497 6.14091 44.6653 6.37146C44.8884 6.602 45 6.92922 45 7.35312C45 7.91089 44.7583 8.3571 44.2749 8.69176C43.7915 9.02642 43.1333 9.19375 42.3004 9.19375Z" fill="white"/>
<path d="M37.1361 4.02884C37.5377 3.40415 38.2442 3.0918 39.2556 3.0918V4.41928C39.1366 4.39697 39.0288 4.38581 38.9321 4.38581C38.3892 4.38581 37.9653 4.54571 37.6604 4.86549C37.3555 5.17784 37.203 5.63149 37.203 6.22644V9.11566H35.8086V3.15873H37.1361V4.02884Z" fill="white"/>
<path d="M34.4697 6.17066C34.4697 6.26734 34.4623 6.40492 34.4474 6.58341H29.7733C29.8551 7.02218 30.0671 7.37172 30.4092 7.63201C30.7587 7.88486 31.19 8.01129 31.7032 8.01129C32.3576 8.01129 32.8968 7.79562 33.3207 7.36428L34.0681 8.22324C33.8004 8.54302 33.462 8.78472 33.053 8.94833C32.644 9.11194 32.1829 9.19375 31.6697 9.19375C31.0153 9.19375 30.4389 9.06361 29.9407 8.80332C29.4424 8.54302 29.0557 8.18234 28.7805 7.72125C28.5128 7.25273 28.3789 6.72471 28.3789 6.1372C28.3789 5.55712 28.5091 5.03654 28.7693 4.57545C29.0371 4.10693 29.4052 3.74252 29.8737 3.48223C30.3422 3.22194 30.8703 3.0918 31.4578 3.0918C32.0378 3.0918 32.5547 3.22194 33.0084 3.48223C33.4694 3.73509 33.8264 4.09577 34.0793 4.5643C34.3396 5.02538 34.4697 5.56084 34.4697 6.17066ZM31.4578 4.20733C31.0116 4.20733 30.6323 4.34119 30.3199 4.60892C30.015 4.86921 29.8291 5.21874 29.7622 5.65752H33.1422C33.0827 5.22618 32.9005 4.87665 32.5956 4.60892C32.2907 4.34119 31.9114 4.20733 31.4578 4.20733Z" fill="white"/>
<path d="M24.4592 6.56056L23.4218 7.54223V9.11513H22.0273V0.837891H23.4218V5.83547L26.311 3.15819H27.9843L25.4966 5.65698L28.2185 9.11513H26.5229L24.4592 6.56056Z" fill="white"/>
<path d="M17.5158 9.19375C16.9134 9.19375 16.3705 9.06361 15.8871 8.80332C15.4037 8.54302 15.0244 8.18234 14.7492 7.72125C14.4815 7.25273 14.3477 6.72471 14.3477 6.1372C14.3477 5.54968 14.4815 5.02538 14.7492 4.5643C15.0244 4.10321 15.4037 3.74252 15.8871 3.48223C16.3705 3.22194 16.9134 3.0918 17.5158 3.0918C18.1256 3.0918 18.6722 3.22194 19.1556 3.48223C19.639 3.74252 20.0146 4.10321 20.2823 4.5643C20.5574 5.02538 20.695 5.54968 20.695 6.1372C20.695 6.72471 20.5574 7.25273 20.2823 7.72125C20.0146 8.18234 19.639 8.54302 19.1556 8.80332C18.6722 9.06361 18.1256 9.19375 17.5158 9.19375ZM17.5158 8.00013C18.0289 8.00013 18.4528 7.82908 18.7875 7.48699C19.1221 7.14489 19.2895 6.69496 19.2895 6.1372C19.2895 5.57943 19.1221 5.1295 18.7875 4.7874C18.4528 4.44531 18.0289 4.27426 17.5158 4.27426C17.0026 4.27426 16.5787 4.44531 16.2441 4.7874C15.9168 5.1295 15.7532 5.57943 15.7532 6.1372C15.7532 6.69496 15.9168 7.14489 16.2441 7.48699C16.5787 7.82908 17.0026 8.00013 17.5158 8.00013Z" fill="white"/>
<path d="M10.3244 9.19375C9.72197 9.19375 9.17908 9.06361 8.69568 8.80332C8.21229 8.54302 7.83301 8.18234 7.55784 7.72125C7.29011 7.25273 7.15625 6.72471 7.15625 6.1372C7.15625 5.54968 7.29011 5.02538 7.55784 4.5643C7.83301 4.10321 8.21229 3.74252 8.69568 3.48223C9.17908 3.22194 9.72197 3.0918 10.3244 3.0918C10.9342 3.0918 11.4808 3.22194 11.9642 3.48223C12.4476 3.74252 12.8231 4.10321 13.0909 4.5643C13.366 5.02538 13.5036 5.54968 13.5036 6.1372C13.5036 6.72471 13.366 7.25273 13.0909 7.72125C12.8231 8.18234 12.4476 8.54302 11.9642 8.80332C11.4808 9.06361 10.9342 9.19375 10.3244 9.19375ZM10.3244 8.00013C10.8375 8.00013 11.2614 7.82908 11.5961 7.48699C11.9307 7.14489 12.0981 6.69496 12.0981 6.1372C12.0981 5.57943 11.9307 5.1295 11.5961 4.7874C11.2614 4.44531 10.8375 4.27426 10.3244 4.27426C9.81121 4.27426 9.38731 4.44531 9.05265 4.7874C8.72543 5.1295 8.56182 5.57943 8.56182 6.1372C8.56182 6.69496 8.72543 7.14489 9.05265 7.48699C9.38731 7.82908 9.81121 8.00013 10.3244 8.00013Z" fill="white"/>
<path d="M3.30197 3.09126C3.88205 3.09126 4.39891 3.21769 4.85256 3.47054C5.31365 3.7234 5.67433 4.08037 5.93462 4.54145C6.19491 5.00254 6.32506 5.53428 6.32506 6.13666C6.32506 6.73905 6.19491 7.2745 5.93462 7.74303C5.67433 8.20411 5.31365 8.56108 4.85256 8.81394C4.39891 9.06679 3.88205 9.19322 3.30197 9.19322C2.89294 9.19322 2.51738 9.12257 2.17529 8.98127C1.84063 8.83997 1.55802 8.62802 1.32748 8.34541V9.11513H0V0.837891H1.39441V3.88329C1.63239 3.623 1.91128 3.42592 2.23106 3.29206C2.55828 3.1582 2.91525 3.09126 3.30197 3.09126ZM3.1458 7.9996C3.65894 7.9996 4.07912 7.82855 4.40635 7.48645C4.74101 7.14436 4.90834 6.69443 4.90834 6.13666C4.90834 5.5789 4.74101 5.12897 4.40635 4.78687C4.07912 4.44477 3.65894 4.27373 3.1458 4.27373C2.81114 4.27373 2.50994 4.35181 2.24222 4.50799C1.97449 4.65672 1.76254 4.87239 1.60636 5.15499C1.45019 5.4376 1.3721 5.76482 1.3721 6.13666C1.3721 6.50851 1.45019 6.83573 1.60636 7.11833C1.76254 7.40093 1.97449 7.62032 2.24222 7.77649C2.50994 7.92523 2.81114 7.9996 3.1458 7.9996Z" fill="white"/>
</g>
<defs>
<clipPath id="clip0_733_10643">
<rect width="45" height="8.35533" fill="white" transform="translate(0 0.837891)"/>
</clipPath>
</defs>
</svg>
