<svg width="32" height="32" viewBox="0 0 32 32" fill="none" xmlns="http://www.w3.org/2000/svg">
<g filter="url(#filter0_d_998_8626)">
<path d="M14.32 14.16L11.71 11.55C11.49 11.33 11.2148 11.2248 10.8844 11.2344C10.554 11.244 10.2792 11.3592 10.06 11.58C9.84 11.8 9.73 12.08 9.73 12.42C9.73 12.76 9.84 13.04 10.06 13.26L13.48 16.68C13.7 16.9 13.98 17.01 14.32 17.01C14.66 17.01 14.94 16.9 15.16 16.68L21.97 9.87C22.19 9.65 22.2952 9.3748 22.2856 9.0444C22.276 8.714 22.1608 8.4392 21.94 8.22C21.72 8 21.44 7.89 21.1 7.89C20.76 7.89 20.48 8 20.26 8.22L14.32 14.16ZM16 24C14.34 24 12.78 23.6848 11.32 23.0544C9.86 22.424 8.59 21.5692 7.51 20.49C6.43 19.41 5.5752 18.14 4.9456 16.68C4.316 15.22 4.0008 13.66 4 12C4 10.34 4.3152 8.78 4.9456 7.32C5.576 5.86 6.4308 4.59 7.51 3.51C8.59 2.43 9.86 1.5752 11.32 0.9456C12.78 0.316 14.34 0.0008 16 0C17.66 0 19.22 0.3152 20.68 0.9456C22.14 1.576 23.41 2.4308 24.49 3.51C25.57 4.59 26.4252 5.86 27.0556 7.32C27.686 8.78 28.0008 10.34 28 12C28 13.66 27.6848 15.22 27.0544 16.68C26.424 18.14 25.5692 19.41 24.49 20.49C23.41 21.57 22.14 22.4252 20.68 23.0556C19.22 23.686 17.66 24.0008 16 24ZM16 21.6C18.66 21.6 20.9252 20.6652 22.7956 18.7956C24.666 16.926 25.6008 14.6608 25.6 12C25.6 9.34 24.6652 7.0748 22.7956 5.2044C20.926 3.334 18.6608 2.3992 16 2.4C13.34 2.4 11.0748 3.3348 9.2044 5.2044C7.334 7.074 6.3992 9.3392 6.4 12C6.4 14.66 7.3348 16.9252 9.2044 18.7956C11.074 20.666 13.3392 21.6008 16 21.6Z" fill="#9C0B35"/>
</g>
<defs>
<filter id="filter0_d_998_8626" x="0" y="0" width="32" height="32" filterUnits="userSpaceOnUse" color-interpolation-filters="sRGB">
<feFlood flood-opacity="0" result="BackgroundImageFix"/>
<feColorMatrix in="SourceAlpha" type="matrix" values="0 0 0 0 0 0 0 0 0 0 0 0 0 0 0 0 0 0 127 0" result="hardAlpha"/>
<feOffset dy="4"/>
<feGaussianBlur stdDeviation="2"/>
<feComposite in2="hardAlpha" operator="out"/>
<feColorMatrix type="matrix" values="0 0 0 0 0 0 0 0 0 0 0 0 0 0 0 0 0 0 0.25 0"/>
<feBlend mode="normal" in2="BackgroundImageFix" result="effect1_dropShadow_998_8626"/>
<feBlend mode="normal" in="SourceGraphic" in2="effect1_dropShadow_998_8626" result="shape"/>
</filter>
</defs>
</svg>
